<svg width="109" height="30" viewBox="0 0 109 20" fill="none" xmlns="http://www.w3.org/2000/svg">
<path d="M0.5 10C0.5 4.75329 4.75329 0.5 10 0.5C15.2467 0.5 19.5 4.75329 19.5 10C19.5 15.2467 15.2467 19.5 10 19.5C4.75329 19.5 0.5 15.2467 0.5 10Z" stroke="#F9FAFA"/>
<path d="M9.72055 10.2799H8.69725V11.3032H9.72055V10.2799ZM11.3035 3.63647H10.2802V8.13739H11.3035V3.63647ZM7.12233 7.11409H3.64471V8.13739H8.14563V3.63647H7.12233V7.11409ZM8.70524 16.3637H9.72854V11.8628H8.70524V16.3637ZM8.70524 8.13739H9.72854V3.63647H8.70524V8.13739ZM3.63672 9.7203H8.13763V8.697H3.63672V9.7203ZM9.72055 8.69701H8.69725V9.72031H9.72055V8.69701ZM3.63672 12.8861H7.11433V16.3637H8.13763V11.8628H3.63672V12.8861ZM3.63672 11.3032H8.13763V10.2799H3.63672V11.3032ZM11.8631 11.3032H16.364V10.2799H11.8631V11.3032ZM12.8864 3.63647H11.8631V8.13739H16.364V7.11409H12.8864V3.63647ZM11.8631 9.7203H16.364V8.697H11.8631V9.7203ZM10.2882 11.3032H11.3035V10.2799H10.2802L10.2882 11.3032ZM10.2802 16.3637H11.3035V11.8628H10.2802V16.3637ZM11.8631 16.3637H12.8864V12.8861H16.364V11.8628H11.8631V16.3637ZM10.2882 9.7203H11.3035V8.697H10.2802L10.2882 9.7203Z" fill="#F9FAFA"/>
<path d="M36.932 4.942C37.0067 4.83933 37.0673 4.77867 37.114 4.76C37.17 4.732 37.2587 4.718 37.38 4.718H39.088V14H36.974V7.924L34.72 10.752H33.488C33.3947 10.752 33.3247 10.7427 33.278 10.724C33.2313 10.7053 33.1753 10.6587 33.11 10.584L31.01 7.924V14H28.91V4.718H30.688C30.8 4.718 30.884 4.732 30.94 4.76C30.996 4.77867 31.0613 4.83933 31.136 4.942L34.034 8.568H34.062L36.932 4.942ZM47.8159 4.718V6.538H43.0979V8.386H47.3959V10.178H43.0979V12.18H47.9559V14H40.9139V4.718H47.8159ZM49.5682 14V4.718H52.8582C53.7635 4.718 54.5569 4.81133 55.2382 4.998C55.9195 5.17533 56.4982 5.474 56.9742 5.894C57.4035 6.27667 57.7349 6.75733 57.9682 7.336C58.2015 7.90533 58.3182 8.582 58.3182 9.366C58.3182 10.1407 58.2015 10.8173 57.9682 11.396C57.7349 11.9653 57.4035 12.4413 56.9742 12.824C56.4982 13.244 55.9195 13.5473 55.2382 13.734C54.5569 13.9113 53.7635 14 52.8582 14H49.5682ZM52.7742 12.11C53.3902 12.11 53.9129 12.0587 54.3422 11.956C54.7809 11.8533 55.1309 11.6713 55.3922 11.41C55.6069 11.1953 55.7702 10.9247 55.8822 10.598C55.9942 10.262 56.0502 9.85133 56.0502 9.366C56.0502 8.87133 55.9942 8.46067 55.8822 8.134C55.7702 7.798 55.6069 7.52267 55.3922 7.308C55.1309 7.04667 54.7809 6.86467 54.3422 6.762C53.9129 6.65933 53.3902 6.608 52.7742 6.608H51.7522V12.11H52.7742ZM66.7271 7.994L65.6351 7.252C65.3177 7.03733 65.0237 6.87867 64.7531 6.776C64.4917 6.664 64.1931 6.608 63.8571 6.608C63.5304 6.608 63.2271 6.66867 62.9471 6.79C62.6671 6.902 62.4197 7.07467 62.2051 7.308C61.9997 7.532 61.8364 7.81667 61.7151 8.162C61.6031 8.498 61.5471 8.89 61.5471 9.338C61.5471 10.234 61.7617 10.9153 62.1911 11.382C62.6297 11.8393 63.2691 12.068 64.1091 12.068C64.4171 12.068 64.7531 12.04 65.1171 11.984C65.4811 11.928 65.7844 11.8533 66.0271 11.76C66.1391 11.7133 66.2044 11.676 66.2231 11.648C66.2417 11.6107 66.2511 11.5453 66.2511 11.452V10.598H64.8371V9.044H68.0711C68.1924 9.044 68.2717 9.06267 68.3091 9.1C68.3557 9.13733 68.3791 9.212 68.3791 9.324V14H66.8251L66.4891 13.188L65.8031 13.566C65.4577 13.7527 65.1217 13.8973 64.7951 14C64.4684 14.0933 64.1091 14.14 63.7171 14.14C63.0264 14.14 62.4057 14.0187 61.8551 13.776C61.3044 13.5333 60.8377 13.202 60.4551 12.782C60.0724 12.3527 59.7784 11.8487 59.5731 11.27C59.3677 10.682 59.2651 10.0473 59.2651 9.366C59.2651 8.61933 59.3911 7.952 59.6431 7.364C59.9044 6.76667 60.2497 6.26267 60.6791 5.852C61.1177 5.44133 61.6217 5.12867 62.1911 4.914C62.7604 4.69 63.3577 4.578 63.9831 4.578C64.9537 4.578 65.7937 4.80667 66.5031 5.264C67.2217 5.712 67.7444 6.314 68.0711 7.07L66.7271 7.994ZM72.2874 14H70.1034V4.718H73.9254C74.6907 4.718 75.3347 4.788 75.8574 4.928C76.38 5.068 76.8047 5.292 77.1314 5.6C77.6447 6.104 77.9014 6.82267 77.9014 7.756C77.9014 8.38133 77.7567 8.932 77.4674 9.408C77.1874 9.87467 76.8234 10.2573 76.3754 10.556L78.4894 14H76.2774C76.1747 14 76.0954 13.986 76.0394 13.958C75.9834 13.9207 75.932 13.8647 75.8854 13.79L74.3454 11.172C74.2894 11.0787 74.2427 11.0227 74.2054 11.004C74.168 10.9853 74.0934 10.976 73.9814 10.976H72.2874V14ZM74.8774 9.198C75.1014 9.198 75.2647 9.12333 75.3674 8.974C75.47 8.82467 75.5447 8.652 75.5914 8.456C75.638 8.26 75.6614 8.05 75.6614 7.826C75.6614 7.39667 75.5587 7.084 75.3534 6.888C75.2227 6.76667 75.0454 6.68267 74.8214 6.636C74.6067 6.58 74.322 6.552 73.9674 6.552H72.2874V9.198H74.8774ZM85.7917 4.718H87.9337V10.22C87.9337 10.892 87.845 11.4473 87.6677 11.886C87.4997 12.3247 87.2523 12.7073 86.9257 13.034C86.5523 13.4073 86.095 13.6873 85.5537 13.874C85.0123 14.0513 84.4103 14.14 83.7477 14.14C83.085 14.14 82.483 14.0513 81.9417 13.874C81.4003 13.6873 80.943 13.4073 80.5697 13.034C80.243 12.7073 79.991 12.3247 79.8137 11.886C79.6457 11.4473 79.5617 10.892 79.5617 10.22V4.718H81.7457V10.08C81.7457 10.416 81.7783 10.696 81.8437 10.92C81.9183 11.144 82.0303 11.3353 82.1797 11.494C82.5063 11.8487 83.0383 12.026 83.7757 12.026C84.1303 12.026 84.4383 11.984 84.6997 11.9C84.9703 11.816 85.1897 11.6807 85.3577 11.494C85.507 11.3353 85.6143 11.144 85.6797 10.92C85.7543 10.696 85.7917 10.416 85.7917 10.08V4.718ZM91.8245 14H89.6405V4.718H93.3785C94.0785 4.718 94.6991 4.78333 95.2405 4.914C95.7818 5.04467 96.2251 5.28267 96.5705 5.628C96.8225 5.88 97.0185 6.19267 97.1585 6.566C97.2985 6.93933 97.3685 7.38267 97.3685 7.896C97.3685 8.4 97.2985 8.85733 97.1585 9.268C97.0185 9.66933 96.8038 10.01 96.5145 10.29C96.2251 10.57 95.8518 10.7847 95.3945 10.934C94.9465 11.074 94.4005 11.144 93.7565 11.144H91.8245V14ZM94.3165 9.366C94.5591 9.366 94.7318 9.29133 94.8345 9.142C94.9371 8.99267 95.0118 8.81067 95.0585 8.596C95.1145 8.372 95.1425 8.14333 95.1425 7.91C95.1425 7.44333 95.0445 7.112 94.8485 6.916C94.7178 6.78533 94.5405 6.692 94.3165 6.636C94.1018 6.58 93.8171 6.552 93.4625 6.552H91.8245V9.366H94.3165ZM107.748 9.366C107.748 10.094 107.617 10.7567 107.356 11.354C107.104 11.942 106.763 12.4413 106.334 12.852C105.905 13.2627 105.401 13.58 104.822 13.804C104.253 14.028 103.655 14.14 103.03 14.14C102.395 14.14 101.793 14.028 101.224 13.804C100.655 13.58 100.155 13.2627 99.7259 12.852C99.2966 12.4413 98.9513 11.942 98.6899 11.354C98.4379 10.7567 98.3119 10.094 98.3119 9.366C98.3119 8.638 98.4379 7.98 98.6899 7.392C98.9513 6.79467 99.2966 6.29067 99.7259 5.88C100.155 5.46 100.655 5.138 101.224 4.914C101.793 4.69 102.395 4.578 103.03 4.578C103.655 4.578 104.253 4.69 104.822 4.914C105.401 5.138 105.905 5.46 106.334 5.88C106.763 6.29067 107.104 6.79467 107.356 7.392C107.617 7.98 107.748 8.638 107.748 9.366ZM105.466 9.366C105.466 8.47933 105.251 7.81667 104.822 7.378C104.393 6.93933 103.795 6.72 103.03 6.72C102.265 6.72 101.667 6.944 101.238 7.392C100.809 7.83067 100.594 8.48867 100.594 9.366C100.594 10.2713 100.809 10.9387 101.238 11.368C101.667 11.788 102.265 11.998 103.03 11.998C103.795 11.998 104.393 11.7787 104.822 11.34C105.251 10.9013 105.466 10.2433 105.466 9.366Z" fill="#F9FAFA"/>
</svg>
